<?xml version="1.0" encoding="UTF-8" standalone="no"?>
<!DOCTYPE svg PUBLIC "-//W3C//DTD SVG 1.1//EN" "http://www.w3.org/Graphics/SVG/1.1/DTD/svg11.dtd">
<svg xmlns="http://www.w3.org/2000/svg" version="1.1" viewBox="0.00 0.00 106.00 83.00">
<path fill="#2e4d68" d="
  M 48.90 49.51
  Q 51.33 53.15 54.60 56.14
  Q 55.75 57.19 55.09 58.59
  Q 54.95 58.90 54.68 59.11
  Q 53.09 60.36 51.63 58.96
  C 43.16 50.89 37.15 39.06 38.56 27.39
  C 39.72 17.80 45.03 9.10 52.23 2.24
  A 1.57 1.53 27.0 0 1 53.52 1.84
  Q 54.49 1.99 54.91 2.60
  Q 55.74 3.79 54.80 4.89
  L 48.37 12.50
  A 0.99 0.98 47.1 0 0 48.33 13.74
  C 56.52 24.85 55.85 37.19 48.88 48.54
  Q 48.58 49.03 48.90 49.51
  Z
  M 45.32 18.02
  Q 38.90 31.89 46.11 44.87
  A 0.27 0.26 -45.6 0 0 46.57 44.86
  Q 54.38 30.68 46.35 17.95
  Q 45.77 17.04 45.32 18.02
  Z"
/>
<path fill="#231f20" d="
  M 68.70 69.98
  L 72.22 62.47
  Q 72.31 62.27 72.53 62.27
  L 76.80 62.18
  A 0.17 0.17 0.0 0 1 76.95 62.42
  Q 73.59 69.64 69.75 76.13
  Q 67.16 80.49 62.17 81.38
  Q 61.61 81.48 61.39 80.96
  L 60.45 78.80
  Q 60.24 78.32 60.74 78.21
  Q 63.21 77.62 65.21 75.77
  A 1.46 1.46 0.0 0 0 65.51 73.99
  L 59.27 62.48
  A 0.15 0.14 -13.6 0 1 59.40 62.27
  L 63.92 62.24
  Q 64.12 62.24 64.21 62.42
  L 67.99 69.99
  Q 68.36 70.72 68.70 69.98
  Z"
/>
<rect fill="#231f20" x="11.75" y="62.26" width="4.00" height="16.24" rx="0.36"/>
<path fill="#231f20" d="
  M 26.94 67.29
  L 30.80 62.39
  A 0.33 0.33 0.0 0 1 31.06 62.26
  L 35.23 62.25
  A 0.33 0.33 0.0 0 1 35.48 62.79
  L 29.35 70.02
  A 0.33 0.33 0.0 0 0 29.35 70.44
  L 35.52 77.83
  A 0.33 0.33 0.0 0 1 35.28 78.37
  L 31.25 78.47
  A 0.33 0.33 0.0 0 1 30.99 78.34
  L 26.80 73.19
  A 0.33 0.33 0.0 0 0 26.29 73.20
  L 22.32 78.37
  A 0.33 0.33 0.0 0 1 22.06 78.50
  L 17.96 78.50
  A 0.33 0.33 0.0 0 1 17.71 77.96
  L 23.90 70.51
  A 0.33 0.33 0.0 0 0 23.90 70.09
  L 18.05 62.79
  A 0.33 0.33 0.0 0 1 18.30 62.26
  L 22.37 62.24
  A 0.33 0.33 0.0 0 1 22.63 62.37
  L 26.42 67.28
  A 0.33 0.33 0.0 0 0 26.94 67.29
  Z"
/>
<path fill="#231f20" d="
  M 47.12 67.78
  L 42.21 78.31
  Q 42.13 78.50 41.92 78.50
  L 37.89 78.49
  Q 37.66 78.49 37.76 78.29
  L 45.36 62.69
  A 0.80 0.78 -76.4 0 1 46.06 62.25
  L 48.93 62.25
  Q 49.42 62.25 49.62 62.70
  L 56.44 77.93
  Q 56.69 78.48 56.08 78.49
  L 52.76 78.51
  Q 52.21 78.52 51.99 78.01
  L 47.59 67.79
  Q 47.36 67.25 47.12 67.78
  Z"
/>
<path fill="#231f20" d="
  M 84.63 67.81
  L 79.75 78.31
  Q 79.66 78.50 79.45 78.50
  L 75.41 78.48
  A 0.14 0.14 0.0 0 1 75.28 78.28
  L 82.84 62.81
  A 1.03 1.02 13.0 0 1 83.76 62.24
  L 86.47 62.25
  Q 86.90 62.25 87.08 62.64
  L 93.91 77.87
  Q 94.20 78.52 93.49 78.51
  L 90.23 78.49
  Q 89.68 78.49 89.47 77.99
  L 85.11 67.82
  Q 84.88 67.28 84.63 67.81
  Z"
/>
</svg>
